<svg width="20" height="20" viewBox="0 0 20 20" fill="none" xmlns="http://www.w3.org/2000/svg">
<path d="M9.81371 0.378517C9.83095 0.343739 9.85755 0.314468 9.89054 0.294003C9.92352 0.273539 9.96156 0.262695 10.0004 0.262695C10.0392 0.262695 10.0772 0.273539 10.1102 0.294003C10.1432 0.314468 10.1698 0.343739 10.187 0.378517L12.9395 5.95518L19.0929 6.84935C19.1313 6.85493 19.1674 6.87114 19.1971 6.89615C19.2268 6.92116 19.2489 6.95398 19.261 6.9909C19.273 7.02781 19.2745 7.06736 19.2653 7.10508C19.256 7.14279 19.2365 7.17718 19.2087 7.20435L14.7554 11.546L15.807 17.6743C15.8137 17.7127 15.8095 17.7522 15.7949 17.7883C15.7803 17.8244 15.7558 17.8557 15.7243 17.8786C15.6928 17.9015 15.6555 17.9151 15.6167 17.9179C15.5778 17.9207 15.539 17.9125 15.5045 17.8944L10.0004 15.0002L4.49621 17.8944C4.46176 17.9125 4.42291 17.9207 4.38406 17.9179C4.34521 17.9151 4.30792 17.9015 4.27642 17.8786C4.24491 17.8557 4.22047 17.8244 4.20585 17.7883C4.19123 17.7522 4.18702 17.7127 4.19371 17.6743L5.24538 11.5452L0.792044 7.20435C0.764303 7.17718 0.744709 7.14279 0.735472 7.10508C0.726235 7.06736 0.727723 7.02781 0.739769 6.9909C0.751814 6.95398 0.773937 6.92116 0.803642 6.89615C0.833346 6.87114 0.869449 6.85493 0.907877 6.84935L7.06121 5.95518L9.81371 0.378517Z" fill="#099A22"/>
</svg>
