<svg width="24" height="24" viewBox="0 0 24 24" fill="none" xmlns="http://www.w3.org/2000/svg">
<path fill-rule="evenodd" clip-rule="evenodd" d="M3.74744 10.875C3.74744 8.98533 4.49811 7.17306 5.83431 5.83686C7.1705 4.50067 8.98277 3.75 10.8724 3.75C12.7621 3.75 14.5744 4.50067 15.9106 5.83686C17.2468 7.17306 17.9974 8.98533 17.9974 10.875C17.9974 12.7647 17.2468 14.5769 15.9106 15.9131C14.5744 17.2493 12.7621 18 10.8724 18C8.98277 18 7.1705 17.2493 5.83431 15.9131C4.49811 14.5769 3.74744 12.7647 3.74744 10.875ZM10.8724 2.25C9.48583 2.2501 8.11968 2.58451 6.8898 3.22488C5.65992 3.86525 4.60256 4.79271 3.80735 5.92864C3.01214 7.06456 2.50252 8.37547 2.3217 9.75024C2.14088 11.125 2.29418 12.5231 2.76861 13.826C3.24303 15.129 4.0246 16.2983 5.04706 17.2349C6.06952 18.1715 7.30273 18.8478 8.64216 19.2065C9.98158 19.5651 11.3877 19.5956 12.7414 19.2952C14.0951 18.9948 15.3564 18.3725 16.4184 17.481L20.4674 21.531C20.609 21.6676 20.7984 21.7431 20.9951 21.7413C21.1917 21.7395 21.3798 21.6605 21.5188 21.5214C21.6578 21.3822 21.7366 21.1941 21.7382 20.9975C21.7398 20.8008 21.6641 20.6114 21.5274 20.47L17.4784 16.42C18.534 15.1624 19.2087 13.6296 19.4232 12.0018C19.6377 10.374 19.3831 8.71875 18.6894 7.23063C17.9956 5.74251 16.8915 4.48333 15.5068 3.60105C14.1221 2.71877 12.5143 2.25006 10.8724 2.25Z" fill="#656E5E"/>
</svg>
