<svg width="25" height="24" viewBox="0 0 25 24" fill="none" xmlns="http://www.w3.org/2000/svg">
<path fill-rule="evenodd" clip-rule="evenodd" d="M21.5904 10.29C21.6629 10.2201 21.7207 10.1362 21.7601 10.0434C21.7996 9.95062 21.8199 9.85084 21.8199 9.75003C21.8199 9.64921 21.7996 9.54943 21.7601 9.45665C21.7207 9.36387 21.6629 9.27999 21.5904 9.21003L14.8404 2.71003C14.7344 2.60806 14.6008 2.5395 14.4561 2.51288C14.3115 2.48626 14.1622 2.50274 14.0269 2.56029C13.8916 2.61783 13.7761 2.7139 13.6949 2.83653C13.6138 2.95917 13.5704 3.10296 13.5704 3.25003V6.77303C6.96736 7.18903 2.56836 13.083 2.56836 20.056C2.56836 20.2549 2.64738 20.4457 2.78803 20.5864C2.92868 20.727 3.11945 20.806 3.31836 20.806C3.51727 20.806 3.70804 20.727 3.84869 20.5864C3.98934 20.4457 4.06836 20.2549 4.06836 20.056C4.06836 16.998 6.22336 15.178 8.74636 14.086C10.5994 13.284 12.5214 12.939 13.5704 12.813V16.25C13.5704 16.3971 13.6138 16.5409 13.6949 16.6635C13.7761 16.7862 13.8916 16.8822 14.0269 16.9398C14.1622 16.9973 14.3115 17.0138 14.4561 16.9872C14.6008 16.9605 14.7344 16.892 14.8404 16.79L21.5904 10.29ZM8.15036 12.71C7.12536 13.153 6.08436 13.741 5.18236 14.512C6.82636 10.753 10.1624 8.25003 14.3204 8.25003C14.5193 8.25003 14.71 8.17101 14.8507 8.03036C14.9913 7.8897 15.0704 7.69894 15.0704 7.50003V5.01303L19.9894 9.75003L15.0704 14.487V12C15.0704 11.8011 14.9913 11.6103 14.8507 11.4697C14.71 11.329 14.5193 11.25 14.3204 11.25C13.7394 11.25 10.8854 11.526 8.15036 12.71Z" fill="#142800"/>
</svg>
