<svg width="14" height="10" viewBox="0 0 14 10" fill="none" xmlns="http://www.w3.org/2000/svg">
<path fill-rule="evenodd" clip-rule="evenodd" d="M8.33333 0.5C8.46594 0.5 8.59312 0.552678 8.68689 0.646447C8.78065 0.740215 8.83333 0.867392 8.83333 1V1.83333H13C13.1326 1.83333 13.2598 1.88601 13.3536 1.97978C13.4473 2.07355 13.5 2.20073 13.5 2.33333C13.5 2.46594 13.4473 2.59312 13.3536 2.68689C13.2598 2.78065 13.1326 2.83333 13 2.83333H8.83333V3.66667C8.83333 3.79927 8.78065 3.92645 8.68689 4.02022C8.59312 4.11399 8.46594 4.16667 8.33333 4.16667C8.20073 4.16667 8.07355 4.11399 7.97978 4.02022C7.88601 3.92645 7.83333 3.79927 7.83333 3.66667V1C7.83333 0.867392 7.88601 0.740215 7.97978 0.646447C8.07355 0.552678 8.20073 0.5 8.33333 0.5ZM0.5 2.33333C0.5 2.20073 0.552678 2.07355 0.646447 1.97978C0.740215 1.88601 0.867392 1.83333 1 1.83333H5.66667C5.79927 1.83333 5.92645 1.88601 6.02022 1.97978C6.11399 2.07355 6.16667 2.20073 6.16667 2.33333C6.16667 2.46594 6.11399 2.59312 6.02022 2.68689C5.92645 2.78065 5.79927 2.83333 5.66667 2.83333H1C0.867392 2.83333 0.740215 2.78065 0.646447 2.68689C0.552678 2.59312 0.5 2.46594 0.5 2.33333ZM4.33333 5.83333C4.46594 5.83333 4.59312 5.88601 4.68689 5.97978C4.78065 6.07355 4.83333 6.20073 4.83333 6.33333V9C4.83333 9.13261 4.78065 9.25979 4.68689 9.35355C4.59312 9.44732 4.46594 9.5 4.33333 9.5C4.20073 9.5 4.07355 9.44732 3.97978 9.35355C3.88601 9.25979 3.83333 9.13261 3.83333 9V8.16667H1C0.867392 8.16667 0.740215 8.11399 0.646447 8.02022C0.552678 7.92645 0.5 7.79927 0.5 7.66667C0.5 7.53406 0.552678 7.40688 0.646447 7.31311C0.740215 7.21935 0.867392 7.16667 1 7.16667H3.83333V6.33333C3.83333 6.20073 3.88601 6.07355 3.97978 5.97978C4.07355 5.88601 4.20073 5.83333 4.33333 5.83333ZM6.5 7.66667C6.5 7.53406 6.55268 7.40688 6.64645 7.31311C6.74022 7.21935 6.86739 7.16667 7 7.16667H13C13.1326 7.16667 13.2598 7.21935 13.3536 7.31311C13.4473 7.40688 13.5 7.53406 13.5 7.66667C13.5 7.79927 13.4473 7.92645 13.3536 8.02022C13.2598 8.11399 13.1326 8.16667 13 8.16667H7C6.86739 8.16667 6.74022 8.11399 6.64645 8.02022C6.55268 7.92645 6.5 7.79927 6.5 7.66667Z" fill="#142800"/>
</svg>
