<svg width="16" height="17" viewBox="0 0 16 17" fill="none" xmlns="http://www.w3.org/2000/svg">
<path d="M10.198 5.02917C10.2471 4.9834 10.2865 4.9282 10.3139 4.86686C10.3412 4.80553 10.3559 4.73932 10.3571 4.67219C10.3582 4.60505 10.3459 4.53836 10.3207 4.47611C10.2956 4.41385 10.2582 4.35729 10.2107 4.30981C10.1632 4.26233 10.1067 4.2249 10.0444 4.19976C9.98214 4.17461 9.91545 4.16226 9.84832 4.16344C9.78118 4.16463 9.71497 4.17932 9.65364 4.20665C9.59231 4.23398 9.53711 4.27338 9.49133 4.3225L8.5 5.31317V1.6665C8.5 1.5339 8.44732 1.40672 8.35355 1.31295C8.25979 1.21918 8.13261 1.1665 8 1.1665C7.86739 1.1665 7.74022 1.21918 7.64645 1.31295C7.55268 1.40672 7.5 1.5339 7.5 1.6665V5.31317L6.50867 4.3225C6.46289 4.27338 6.40769 4.23398 6.34636 4.20665C6.28503 4.17932 6.21882 4.16463 6.15168 4.16344C6.08455 4.16226 6.01786 4.17461 5.9556 4.19976C5.89334 4.2249 5.83679 4.26233 5.78931 4.30981C5.74183 4.35729 5.7044 4.41385 5.67925 4.47611C5.6541 4.53836 5.64176 4.60505 5.64294 4.67219C5.64412 4.73932 5.65882 4.80553 5.68615 4.86686C5.71347 4.9282 5.75288 4.9834 5.802 5.02917L7.64667 6.87384C7.74042 6.96747 7.8675 7.02006 8 7.02006C8.1325 7.02006 8.25958 6.96747 8.35333 6.87384L10.198 5.02917ZM4.77667 7.3865C4.89523 7.32723 5.03247 7.31746 5.15823 7.35934C5.28399 7.40121 5.38798 7.49132 5.44733 7.60984L5.94733 8.60984C5.97727 8.66865 5.99526 8.7328 6.00029 8.79859C6.00531 8.86439 5.99726 8.93053 5.9766 8.9932C5.95593 9.05587 5.92307 9.11383 5.8799 9.16374C5.83674 9.21365 5.78412 9.25452 5.72508 9.284C5.66604 9.31347 5.60175 9.33097 5.53591 9.33548C5.47008 9.33999 5.40401 9.33142 5.3415 9.31028C5.27899 9.28913 5.22129 9.25582 5.17171 9.21226C5.12214 9.16871 5.08168 9.11577 5.05267 9.0565L4.55267 8.0565C4.49344 7.93786 4.48377 7.80055 4.52577 7.67478C4.56778 7.54901 4.65803 7.44574 4.77667 7.3865ZM6.46067 11.1978C6.97155 10.9476 7.53571 10.8257 8.10431 10.8427C8.67292 10.8596 9.22883 11.0149 9.72391 11.2951C10.219 11.5752 10.6383 11.9718 10.9456 12.4506C11.2528 12.9293 11.4388 13.4757 11.4873 14.0425C11.4987 14.1747 11.562 14.2969 11.6635 14.3824C11.7649 14.4678 11.8962 14.5095 12.0283 14.4982C12.1605 14.4869 12.2828 14.4235 12.3682 14.322C12.4537 14.2206 12.4953 14.0893 12.484 13.9572C12.4091 13.0925 12.0864 12.2678 11.5547 11.5818C10.9995 10.8668 10.2416 10.3358 9.38 10.0583C8.51836 9.78072 7.59305 9.76948 6.72493 10.026C5.85681 10.2826 5.08624 10.795 4.51388 11.4963C3.94152 12.1976 3.59399 13.0552 3.51667 13.9572C3.50921 14.0235 3.51511 14.0907 3.53404 14.1547C3.55296 14.2188 3.58452 14.2784 3.62686 14.33C3.66919 14.3817 3.72144 14.4243 3.78052 14.4554C3.83961 14.4865 3.90432 14.5055 3.97085 14.5112C4.03739 14.5169 4.10439 14.5092 4.1679 14.4886C4.23141 14.468 4.29016 14.4349 4.34066 14.3912C4.39116 14.3475 4.4324 14.2941 4.46194 14.2342C4.49148 14.1744 4.50873 14.1092 4.51267 14.0425C4.56423 13.4405 4.77074 12.8622 5.1121 12.3637C5.45347 11.8652 5.91806 11.4635 6.46067 11.1978ZM0.5 15.3332C0.5 15.2006 0.552678 15.0734 0.646447 14.9796C0.740215 14.8858 0.867392 14.8332 1 14.8332H15C15.1326 14.8332 15.2598 14.8858 15.3536 14.9796C15.4473 15.0734 15.5 15.2006 15.5 15.3332C15.5 15.4658 15.4473 15.593 15.3536 15.6867C15.2598 15.7805 15.1326 15.8332 15 15.8332H1C0.867392 15.8332 0.740215 15.7805 0.646447 15.6867C0.552678 15.593 0.5 15.4658 0.5 15.3332ZM1.724 10.8865C1.60638 10.8338 1.47295 10.8286 1.35156 10.8719C1.23017 10.9152 1.13018 11.0037 1.07247 11.1189C1.01477 11.2342 1.00379 11.3672 1.04184 11.4904C1.07988 11.6135 1.16401 11.7172 1.27667 11.7798L2.27667 12.2798C2.33569 12.3131 2.40085 12.334 2.46819 12.3413C2.53554 12.3486 2.60367 12.3422 2.66845 12.3223C2.73322 12.3025 2.79329 12.2697 2.84502 12.226C2.89674 12.1822 2.93903 12.1284 2.96932 12.0678C2.99962 12.0072 3.01729 11.9411 3.02125 11.8735C3.02522 11.8059 3.0154 11.7381 2.9924 11.6744C2.96939 11.6107 2.93368 11.5523 2.88743 11.5028C2.84118 11.4533 2.78535 11.4138 2.72333 11.3865L1.724 10.8865ZM14.724 11.7798C14.7856 11.7522 14.8409 11.7125 14.8867 11.6629C14.9325 11.6134 14.9678 11.5551 14.9905 11.4915C15.0132 11.428 15.0227 11.3605 15.0186 11.2932C15.0145 11.2258 14.9968 11.16 14.9666 11.0997C14.9364 11.0393 14.8943 10.9858 14.8428 10.9421C14.7914 10.8985 14.7316 10.8657 14.6671 10.8458C14.6027 10.8259 14.5349 10.8192 14.4677 10.8262C14.4006 10.8332 14.3356 10.8537 14.2767 10.8865L13.2767 11.3865C13.2147 11.4138 13.1588 11.4533 13.1126 11.5028C13.0663 11.5523 13.0306 11.6107 13.0076 11.6744C12.9846 11.7381 12.9748 11.8059 12.9787 11.8735C12.9827 11.9411 13.0004 12.0072 13.0307 12.0678C13.061 12.1284 13.1033 12.1822 13.155 12.226C13.2067 12.2697 13.2668 12.3025 13.3316 12.3223C13.3963 12.3422 13.4645 12.3486 13.5318 12.3413C13.5992 12.334 13.6643 12.3131 13.7233 12.2798L14.724 11.7798ZM11.4473 8.0565C11.4773 7.9977 11.4953 7.93354 11.5003 7.86775C11.5053 7.80195 11.4973 7.73581 11.4766 7.67314C11.4559 7.61047 11.4231 7.55251 11.3799 7.5026C11.3367 7.45269 11.2841 7.41182 11.2251 7.38235C11.166 7.35287 11.1017 7.33537 11.0359 7.33086C10.9701 7.32635 10.904 7.33492 10.8415 7.35606C10.779 7.37721 10.7213 7.41052 10.6717 7.45408C10.6221 7.49763 10.5817 7.55057 10.5527 7.60984L10.0527 8.60984C9.99465 8.72833 9.98583 8.86496 10.0281 8.98993C10.0704 9.11491 10.1604 9.21811 10.2784 9.27704C10.3964 9.33597 10.533 9.34586 10.6583 9.30455C10.7836 9.26324 10.8875 9.17408 10.9473 9.0565L11.4473 8.0565Z" fill="white"/>
</svg>
