<svg width="18" height="16" viewBox="0 0 18 16" fill="none" xmlns="http://www.w3.org/2000/svg">
<path d="M17.9998 4.83238C18.005 6.58819 17.2841 8.27296 15.9964 9.51066L9.53469 15.8042H9.53555C9.26468 16.0653 8.82682 16.0653 8.55681 15.8042L2.09506 9.55501C0.771896 8.31555 0.0173019 6.61405 0 4.83238C0.00259617 3.55527 0.528739 2.33083 1.46249 1.42693C2.3971 0.52392 3.66313 0.0150839 4.9838 0.0125558C6.30435 0.010045 7.5731 0.51385 8.51109 1.41354L9.00001 1.88638L9.48894 1.41354C10.4244 0.508001 11.6948 -0.000834534 13.018 1.02744e-06C14.342 0.000837875 15.6106 0.510508 16.5453 1.41688C17.4799 2.32408 18.0034 3.55266 18 4.83218L17.9998 4.83238Z" fill="#F35353"/>
</svg>
