<svg width="16" height="16" viewBox="0 0 16 16" fill="none" xmlns="http://www.w3.org/2000/svg">
<path fill-rule="evenodd" clip-rule="evenodd" d="M7.64667 1.64672C7.74042 1.55308 7.8675 1.50049 8 1.50049C8.1325 1.50049 8.25958 1.55308 8.35333 1.64672C8.75771 2.04393 9.17115 2.43181 9.59333 2.81005L9.96267 3.14738C10.5273 3.66472 11.1053 4.21005 11.624 4.79272C12.6573 5.95538 13.5 7.32071 13.5 9.00005C13.5 10.4587 12.9205 11.8577 11.8891 12.8891C10.8576 13.9206 9.45869 14.5 8 14.5C6.54131 14.5 5.14236 13.9206 4.11091 12.8891C3.07946 11.8577 2.5 10.4587 2.5 9.00005C2.5 7.32071 3.34267 5.95538 4.376 4.79338C4.894 4.21005 5.47267 3.66471 6.03733 3.14671L6.406 2.81005C6.82818 2.4318 7.24162 2.04392 7.646 1.64672H7.64667ZM5.124 5.45738C4.15733 6.54405 3.5 7.67938 3.5 9.00005C3.5 10.1935 3.97411 11.3381 4.81802 12.182C5.66193 13.0259 6.80653 13.5 8 13.5C9.19347 13.5 10.3381 13.0259 11.182 12.182C12.0259 11.3381 12.5 10.1935 12.5 9.00005C12.5 7.67938 11.8427 6.54471 10.876 5.45738C10.394 4.91472 9.848 4.39805 9.28733 3.88405L8.93067 3.55871C8.61715 3.27563 8.30691 2.98895 8 2.69871C7.69933 2.98538 7.384 3.27205 7.06933 3.55871L6.71267 3.88405C6.15267 4.39805 5.606 4.91472 5.124 5.45738Z" fill="white"/>
</svg>
