<svg width="13" height="13" viewBox="0 0 13 13" fill="none" xmlns="http://www.w3.org/2000/svg">
<path d="M6.37862 0.745695C6.38982 0.723089 6.40712 0.704062 6.42856 0.69076C6.44999 0.677458 6.47472 0.67041 6.49995 0.67041C6.52518 0.67041 6.54991 0.677458 6.57135 0.69076C6.59279 0.704062 6.61008 0.723089 6.62129 0.745695L8.41041 4.37053L12.4101 4.95174C12.4351 4.95536 12.4585 4.9659 12.4778 4.98216C12.4971 4.99842 12.5115 5.01974 12.5193 5.04374C12.5272 5.06774 12.5281 5.09344 12.5221 5.11796C12.5161 5.14247 12.5034 5.16482 12.4854 5.18249L9.5907 8.00457L10.2743 11.988C10.2786 12.0129 10.2759 12.0386 10.2664 12.0621C10.2569 12.0855 10.241 12.1059 10.2205 12.1207C10.2001 12.1356 10.1758 12.1445 10.1506 12.1463C10.1253 12.1481 10.1001 12.1428 10.0777 12.131L6.49995 10.2498L2.92224 12.131C2.89985 12.1428 2.8746 12.1481 2.84935 12.1463C2.82409 12.1445 2.79985 12.1356 2.77938 12.1207C2.7589 12.1059 2.74301 12.0855 2.73351 12.0621C2.72401 12.0386 2.72127 12.0129 2.72562 11.988L3.4092 8.00403L0.514536 5.18249C0.496504 5.16482 0.483768 5.14247 0.477764 5.11796C0.47176 5.09344 0.472727 5.06774 0.480557 5.04374C0.488386 5.01974 0.502766 4.99842 0.522074 4.98216C0.541382 4.9659 0.564849 4.95536 0.589827 4.95174L4.58949 4.37053L6.37862 0.745695Z" fill="#099A22"/>
</svg>
