<svg width="16" height="17" viewBox="0 0 16 17" fill="none" xmlns="http://www.w3.org/2000/svg">
<path d="M7.85038 1.05262C7.86417 1.0248 7.88546 1.00138 7.91184 0.985007C7.93823 0.968636 7.96866 0.959961 7.99972 0.959961C8.03077 0.959961 8.0612 0.968636 8.08759 0.985007C8.11397 1.00138 8.13526 1.0248 8.14905 1.05262L10.351 5.51395L15.2737 6.22929C15.3045 6.23375 15.3333 6.24672 15.3571 6.26673C15.3809 6.28674 15.3986 6.31299 15.4082 6.34252C15.4178 6.37205 15.419 6.40369 15.4116 6.43387C15.4043 6.46404 15.3886 6.49155 15.3664 6.51329L11.8037 9.98662L12.6451 14.8893C12.6504 14.92 12.647 14.9516 12.6353 14.9804C12.6236 15.0093 12.6041 15.0344 12.5789 15.0527C12.5537 15.071 12.5239 15.0819 12.4928 15.0841C12.4617 15.0864 12.4306 15.0798 12.403 15.0653L7.99972 12.75L3.59638 15.0653C3.56883 15.0798 3.53774 15.0864 3.50666 15.0841C3.47558 15.0819 3.44575 15.071 3.42055 15.0527C3.39535 15.0344 3.37579 15.0093 3.36409 14.9804C3.3524 14.9516 3.34903 14.92 3.35438 14.8893L4.19572 9.98595L0.633049 6.51329C0.610857 6.49155 0.595181 6.46404 0.587792 6.43387C0.580402 6.40369 0.581593 6.37205 0.591229 6.34252C0.600865 6.31299 0.618564 6.28674 0.642327 6.26673C0.666091 6.24672 0.694973 6.23375 0.725716 6.22929L5.64838 5.51395L7.85038 1.05262Z" fill="#DBDAD2"/>
</svg>
