<svg width="16" height="17" viewBox="0 0 16 17" fill="none" xmlns="http://www.w3.org/2000/svg">
<path d="M5.802 3.15789C5.71368 3.25267 5.6656 3.37803 5.66788 3.50757C5.67017 3.6371 5.72264 3.76069 5.81425 3.8523C5.90586 3.94391 6.02945 3.99638 6.15899 3.99867C6.28852 4.00095 6.41388 3.95287 6.50867 3.86455L7.5 2.87322V6.52055C7.5 6.65316 7.55268 6.78034 7.64645 6.87411C7.74022 6.96787 7.86739 7.02055 8 7.02055C8.13261 7.02055 8.25979 6.96787 8.35355 6.87411C8.44732 6.78034 8.5 6.65316 8.5 6.52055V2.87389L9.49067 3.86455C9.58492 3.95568 9.7112 4.00613 9.8423 4.00506C9.9734 4.00398 10.0988 3.95146 10.1916 3.85879C10.2843 3.76613 10.337 3.64075 10.3382 3.50965C10.3394 3.37855 10.289 3.25223 10.198 3.15789L8.35333 1.31322C8.25958 1.21959 8.1325 1.16699 8 1.16699C7.8675 1.16699 7.74042 1.21959 7.64667 1.31322L5.802 3.15789ZM4.77667 7.38655C4.89523 7.32728 5.03247 7.31751 5.15823 7.35938C5.28399 7.40126 5.38798 7.49137 5.44733 7.60989L5.94733 8.60989C6.00535 8.72838 6.01417 8.865 5.97189 8.98998C5.92961 9.11496 5.83964 9.21815 5.7216 9.27709C5.60356 9.33602 5.46701 9.34591 5.34171 9.3046C5.21641 9.26329 5.11252 9.17413 5.05267 9.05655L4.55267 8.05655C4.49344 7.93791 4.48377 7.8006 4.52577 7.67483C4.56778 7.54906 4.65803 7.44579 4.77667 7.38655ZM6.46067 11.1979C6.97155 10.9477 7.53571 10.8258 8.10431 10.8427C8.67292 10.8596 9.22883 11.0149 9.72391 11.2951C10.219 11.5753 10.6383 11.9719 10.9456 12.4506C11.2528 12.9294 11.4388 13.4758 11.4873 14.0426C11.4987 14.1747 11.562 14.297 11.6635 14.3824C11.7649 14.4679 11.8962 14.5095 12.0283 14.4982C12.1605 14.4869 12.2828 14.4235 12.3682 14.3221C12.4537 14.2206 12.4953 14.0894 12.484 13.9572C12.4094 13.0925 12.0867 12.2677 11.5547 11.5819C10.9995 10.8669 10.2416 10.3359 9.38 10.0583C8.51836 9.78077 7.59305 9.76953 6.72493 10.0261C5.85681 10.2826 5.08624 10.795 4.51388 11.4963C3.94152 12.1977 3.59399 13.0553 3.51667 13.9572C3.50921 14.0236 3.51511 14.0908 3.53404 14.1548C3.55296 14.2188 3.58452 14.2784 3.62686 14.3301C3.66919 14.3817 3.72144 14.4244 3.78052 14.4555C3.83961 14.4866 3.90432 14.5056 3.97085 14.5113C4.03739 14.517 4.10439 14.5093 4.1679 14.4887C4.23141 14.468 4.29016 14.4349 4.34066 14.3912C4.39116 14.3475 4.4324 14.2942 4.46194 14.2343C4.49148 14.1744 4.50873 14.1092 4.51267 14.0426C4.56423 13.4406 4.77074 12.8622 5.1121 12.3637C5.45347 11.8652 5.91806 11.4636 6.46067 11.1979ZM0.5 15.3332C0.5 15.2006 0.552678 15.0734 0.646447 14.9797C0.740215 14.8859 0.867392 14.8332 1 14.8332H15C15.1326 14.8332 15.2598 14.8859 15.3536 14.9797C15.4473 15.0734 15.5 15.2006 15.5 15.3332C15.5 15.4658 15.4473 15.593 15.3536 15.6868C15.2598 15.7805 15.1326 15.8332 15 15.8332H1C0.867392 15.8332 0.740215 15.7805 0.646447 15.6868C0.552678 15.593 0.5 15.4658 0.5 15.3332ZM1.724 10.8866C1.60638 10.8339 1.47295 10.8286 1.35156 10.8719C1.23017 10.9152 1.13018 11.0037 1.07247 11.119C1.01477 11.2342 1.00379 11.3673 1.04184 11.4904C1.07988 11.6136 1.16401 11.7173 1.27667 11.7799L2.27667 12.2799C2.39414 12.3315 2.52698 12.336 2.64768 12.2924C2.76839 12.2489 2.86771 12.1606 2.9251 12.0458C2.98249 11.931 2.99355 11.7985 2.956 11.6758C2.91844 11.5531 2.83514 11.4495 2.72333 11.3866L1.724 10.8866ZM14.724 11.7799C14.8367 11.7173 14.9208 11.6136 14.9588 11.4904C14.9969 11.3673 14.9859 11.2342 14.9282 11.119C14.8705 11.0037 14.7705 10.9152 14.6491 10.8719C14.5277 10.8286 14.3943 10.8339 14.2767 10.8866L13.2767 11.3866C13.1649 11.4495 13.0816 11.5531 13.044 11.6758C13.0064 11.7985 13.0175 11.931 13.0749 12.0458C13.1323 12.1606 13.2316 12.2489 13.3523 12.2924C13.473 12.336 13.6059 12.3315 13.7233 12.2799L14.724 11.7799ZM11.4473 8.05722C11.4767 7.99847 11.4942 7.93452 11.4989 7.86901C11.5035 7.80349 11.4952 7.7377 11.4745 7.6754C11.4537 7.61309 11.4209 7.55548 11.3778 7.50586C11.3348 7.45625 11.2824 7.41559 11.2237 7.38622C11.1649 7.35685 11.101 7.33933 11.0355 7.33468C10.9699 7.33002 10.9042 7.33831 10.8418 7.35908C10.7795 7.37985 10.7219 7.41269 10.6723 7.45572C10.6227 7.49876 10.582 7.55114 10.5527 7.60989L10.0527 8.60989C9.99465 8.72838 9.98583 8.865 10.0281 8.98998C10.0704 9.11496 10.1604 9.21815 10.2784 9.27709C10.3964 9.33602 10.533 9.34591 10.6583 9.3046C10.7836 9.26329 10.8875 9.17413 10.9473 9.05655L11.4473 8.05722Z" fill="white"/>
</svg>
