<svg width="46" height="44" viewBox="0 0 46 44" fill="none" xmlns="http://www.w3.org/2000/svg">
<path d="M31.4177 10.3529L44.7673 15.098L42.926 29.3333L30.0367 27.6078L31.4177 10.3529Z" fill="#FFDAAC"/>
<path d="M30.0367 27.6078L42.926 29.3333L44.9975 44L31.3799 41.1961L30.0367 27.6078Z" fill="#FFDAAC"/>
<path d="M30.2289 10.3529L16.4567 16.6078L17.1094 29.7646L29.1158 28.0392L30.2289 10.3529Z" fill="#FFDAAC"/>
<path d="M29.1156 28.0391L17.1093 29.7646L15.9962 43.6924L30.2665 41.3198L29.1156 28.0391Z" fill="#FFDAAC"/>
<path d="M15.7281 29.5491L3.33689 26.9608L1.49556 41.1961L14.8452 43.5686L15.7281 29.5491Z" fill="#FFDAAC"/>
<path d="M3.33689 26.9608L15.7281 29.5491L5.14045 13.1569L1.4578 12.0785L3.33689 26.9608Z" fill="#FFDAAC"/>
<path d="M1.68817 27.3968C3.90643 25.5511 7.4286 23.6503 11.125 22.4325M44.8084 32.2106C38.0768 25.5062 30.8994 22.9915 20.3316 32.5734C13.187 39.0514 25.2157 44.4102 26.3159 29.9804C26.718 24.7077 24.4235 22.1968 21.0221 21.4093" stroke="black" stroke-width="3"/>
<path d="M8.75078 17.238C6.47208 13.7262 7.05101 9.20959 10.1524 6.30333C13.8673 2.82209 19.8905 2.82209 23.6054 6.30333C26.7068 9.2096 27.2857 13.7262 25.007 17.238L17.4455 28.8914C17.1872 29.2895 16.5705 29.2895 16.3122 28.8914L8.75078 17.238Z" fill="#099A22"/>
<path fill-rule="evenodd" clip-rule="evenodd" d="M16.7853 18.8787C14.3837 16.5582 12.093 14.565 12.093 12.8453C12.093 11.2571 13.4017 10.6707 14.3457 10.6707C14.9054 10.6707 16.1164 10.8805 16.7853 12.5378C17.4636 10.8755 18.6895 10.6748 19.2279 10.6748C20.3114 10.6748 21.4776 11.3539 21.4776 12.8453C21.4776 14.5499 19.2867 16.4585 16.7853 18.8787Z" fill="url(#paint0_linear_2_1622)"/>
<defs>
<linearGradient id="paint0_linear_2_1622" x1="16.7853" y1="10.6707" x2="16.7853" y2="18.8787" gradientUnits="userSpaceOnUse">
<stop stop-color="white"/>
<stop offset="1" stop-color="white" stop-opacity="0"/>
</linearGradient>
</defs>
</svg>
